<?xml version="1.0" encoding="UTF-8"?>
<svg version="1.1" xmlns="http://www.w3.org/2000/svg" width="151" height="126">
<path d="M0 0 C5.19232651 3.20777997 8.3354955 6.19961345 10.55859375 11.90234375 C11.71220031 18.62969148 9.92529841 23.11582012 6.55859375 28.90234375 C7.87859375 29.56234375 9.19859375 30.22234375 10.55859375 30.90234375 C10.55859375 31.89234375 10.55859375 32.88234375 10.55859375 33.90234375 C-0.99140625 33.90234375 -12.54140625 33.90234375 -24.44140625 33.90234375 C-24.44140625 32.58234375 -24.44140625 31.26234375 -24.44140625 29.90234375 C-23.12140625 29.57234375 -21.80140625 29.24234375 -20.44140625 28.90234375 C-21.10140625 28.15984375 -21.76140625 27.41734375 -22.44140625 26.65234375 C-25.61349924 21.89420426 -25.1935529 16.37797137 -24.44140625 10.90234375 C-22.69140625 7.40234375 -22.69140625 7.40234375 -20.44140625 4.90234375 C-19.80203125 4.15984375 -19.16265625 3.41734375 -18.50390625 2.65234375 C-13.24092697 -1.81321442 -6.32335282 -2.84297943 0 0 Z M-16.44140625 7.90234375 C-19.12783857 11.48425351 -19.44140625 13.41680413 -19.44140625 17.90234375 C-18.5330298 23.11303066 -15.71767891 26.26627278 -11.44140625 29.33984375 C-7.65916493 30.40359912 -4.86295581 29.07096357 -1.31640625 27.65234375 C2.01947691 25.62180617 3.13792302 24.53294674 4.55859375 20.90234375 C5.37994768 15.965094 5.10186804 12.83609644 2.55859375 8.46484375 C-3.81529184 3.02048314 -9.72584268 2.66543638 -16.44140625 7.90234375 Z M6.55859375 14.90234375 C7.55859375 17.90234375 7.55859375 17.90234375 7.55859375 17.90234375 Z " fill="#FFFFFF" transform="translate(27.44140625,45.09765625)"/>
<path d="M0 0 C1.65 0 3.3 0 5 0 C5 0.99 5 1.98 5 3 C5.66 3 6.32 3 7 3 C7.66 4.98 8.32 6.96 9 9 C9.66 9 10.32 9 11 9 C11 6.69 11 4.38 11 2 C11.99 2 12.98 2 14 2 C14 4.31 14 6.62 14 9 C14.66 9 15.32 9 16 9 C16 6.03 16 3.06 16 0 C18.31 0 20.62 0 23 0 C23.33 0.99 23.66 1.98 24 3 C24.928125 2.79375 25.85625 2.5875 26.8125 2.375 C30 2 30 2 33 4 C33.99 3.34 34.98 2.68 36 2 C37.32 2 38.64 2 40 2 C40.33 1.34 40.66 0.68 41 0 C42.65 0 44.3 0 46 0 C46 3.96 46 7.92 46 12 C44.02 12 42.04 12 40 12 C40 12.66 40 13.32 40 14 C38.35 14 36.7 14 35 14 C34.34 12.68 33.68 11.36 33 10 C32.01 10.66 31.02 11.32 30 12 C27.23344676 12.14245897 24.57346694 12.18769445 21.8125 12.125 C21.06291016 12.11597656 20.31332031 12.10695313 19.54101562 12.09765625 C17.69387346 12.07412578 15.84689588 12.03825561 14 12 C14 12.66 14 13.32 14 14 C11.625 14.125 11.625 14.125 9 14 C8.34 13.34 7.68 12.68 7 12 C6.21625 12.165 5.4325 12.33 4.625 12.5 C2 13 2 13 -0.25 12.375 C-2 11 -2 11 -2.9375 8.625 C-3.01515394 5.36353458 -2.08243905 4.4156293 0 2 C0 1.34 0 0.68 0 0 Z M1 5 C0.67 6.32 0.34 7.64 0 9 C1.485 9.99 1.485 9.99 3 11 C3.99 10.34 4.98 9.68 6 9 C5.67 7.68 5.34 6.36 5 5 C3.68 5 2.36 5 1 5 Z M26 5 C25.34 6.32 24.68 7.64 24 9 C25.98 9 27.96 9 30 9 C29.67 7.68 29.34 6.36 29 5 C28.01 5 27.02 5 26 5 Z M36 5 C35.67 6.32 35.34 7.64 35 9 C35.99 9 36.98 9 38 9 C38 7.68 38 6.36 38 5 C37.34 5 36.68 5 36 5 Z " fill="#FFFFFF" transform="translate(47,52)"/>
<path d="M0 0 C0.99 0 1.98 0 3 0 C3.33 0.99 3.66 1.98 4 3 C4.33 2.67 4.66 2.34 5 2 C6.66617115 1.95936168 8.33388095 1.957279 10 2 C10 4.31 10 6.62 10 9 C12.97 9 15.94 9 19 9 C18.67 8.34 18.34 7.68 18 7 C15.67843403 6.59270772 13.3431213 6.25561323 11 6 C12.14099526 2.57701423 13.00085621 1.85241234 16 0 C16.99 0 17.98 0 19 0 C18.67 0.99 18.34 1.98 18 3 C19.32 3.99 20.64 4.98 22 6 C22.33 5.01 22.66 4.02 23 3 C24.32 3 25.64 3 27 3 C27.845625 2.79375 28.69125 2.5875 29.5625 2.375 C32 2 32 2 35 4 C35.33 2.68 35.66 1.36 36 0 C37.65 0 39.3 0 41 0 C41 3.96 41 7.92 41 12 C30.77 12 20.54 12 10 12 C10 12.66 10 13.32 10 14 C8.35 14 6.7 14 5 14 C5 13.01 5 12.02 5 11 C4.01 11.495 4.01 11.495 3 12 C1.33654418 12.12082534 -0.33220591 12.1753794 -2 12.1875 C-3.3303125 12.20876953 -3.3303125 12.20876953 -4.6875 12.23046875 C-7 12 -7 12 -9 10 C-9.125 7.375 -9.125 7.375 -9 5 C-8.34 5 -7.68 5 -7 5 C-6.67 6.32 -6.34 7.64 -6 9 C-4.02 9 -2.04 9 0 9 C0 6.03 0 3.06 0 0 Z M6 5 C5.67 6.32 5.34 7.64 5 9 C5.99 9 6.98 9 8 9 C8 7.68 8 6.36 8 5 C7.34 5 6.68 5 6 5 Z M29 5 C27.29467677 6.94009522 27.29467677 6.94009522 26 9 C27.98 9 29.96 9 32 9 C32 7.68 32 6.36 32 5 C31.01 5 30.02 5 29 5 Z " fill="#FFFFFF" transform="translate(106,52)"/>
<path d="M0 0 C3.375 -0.125 3.375 -0.125 7 0 C7.66 0.66 8.32 1.32 9 2 C9.66 1.34 10.32 0.68 11 0 C14.81937614 -0.25462508 18.29420608 0.04708156 22 1 C22.33 1.33 22.66 1.66 23 2 C23.33 1.34 23.66 0.68 24 0 C29.94 0 35.88 0 42 0 C42 3 42 6 42 9 C39.22858283 9.08089542 36.45952181 9.14044062 33.6875 9.1875 C32.90181641 9.21263672 32.11613281 9.23777344 31.30664062 9.26367188 C30.54931641 9.27333984 29.79199219 9.28300781 29.01171875 9.29296875 C28.31522217 9.3086792 27.61872559 9.32438965 26.90112305 9.34057617 C24.45510217 8.90238443 23.57297914 7.86562642 22 6 C21.67 6.99 21.34 7.98 21 9 C14.07 9 7.14 9 0 9 C0 6.03 0 3.06 0 0 Z M13 2 C12.34 2.66 11.68 3.32 11 4 C11 4.99 11 5.98 11 7 C12.32 7.33 13.64 7.66 15 8 C15.66 6.68 16.32 5.36 17 4 C15.68 3.34 14.36 2.68 13 2 Z M29 3 C29 4.32 29 5.64 29 7 C29.99 6.67 30.98 6.34 32 6 C32 5.01 32 4.02 32 3 C31.01 3 30.02 3 29 3 Z M3 5 C3 5.66 3 6.32 3 7 C3.99 6.67 4.98 6.34 6 6 C5.01 5.67 4.02 5.34 3 5 Z M35 5 C35 5.66 35 6.32 35 7 C36.32 6.67 37.64 6.34 39 6 C37.68 5.67 36.36 5.34 35 5 Z " fill="#FFFFFF" transform="translate(105,70)"/>
<path d="M0 0 C4 0 8 0 12 0 C13.3921875 -0.0309375 13.3921875 -0.0309375 14.8125 -0.0625 C22.08 0.08 22.08 0.08 24 2 C24.33 1.34 24.66 0.68 25 0 C25.99 0 26.98 0 28 0 C28.33 1.32 28.66 2.64 29 4 C29.66 2.68 30.32 1.36 31 0 C31.66 0 32.32 0 33 0 C33.66 1.32 34.32 2.64 35 4 C35.33 2.68 35.66 1.36 36 0 C36.66 0 37.32 0 38 0 C38 2.31 38 4.62 38 7 C39.32 7 40.64 7 42 7 C42 7.66 42 8.32 42 9 C39.37472811 9.05382106 36.75055287 9.09358313 34.125 9.125 C33.37863281 9.14175781 32.63226563 9.15851563 31.86328125 9.17578125 C29.90805539 9.1933959 27.95257979 9.10320189 26 9 C25.34 8.34 24.68 7.68 24 7 C23.67 7.66 23.34 8.32 23 9 C17.72 9 12.44 9 7 9 C7 7.02 7 5.04 7 3 C6.34 3 5.68 3 5 3 C5 4.98 5 6.96 5 9 C4.34 9 3.68 9 3 9 C3 7.02 3 5.04 3 3 C2.01 3 1.02 3 0 3 C0 2.01 0 1.02 0 0 Z M14 2 C13.34 3.32 12.68 4.64 12 6 C13.88316159 7.10836423 13.88316159 7.10836423 16 8 C16.66 7.67 17.32 7.34 18 7 C17.73323796 5.01508358 17.73323796 5.01508358 17 3 C16.01 2.67 15.02 2.34 14 2 Z " fill="#FFFFFF" transform="translate(59,70)"/>
<path d="M0 0 C4 2 4 2 5 3 C5.33 2.01 5.66 1.02 6 0 C6.99 0 7.98 0 9 0 C9.33 0.66 9.66 1.32 10 2 C10.33 1.34 10.66 0.68 11 0 C14 1 14 1 14.94921875 2.84765625 C15.31466797 3.94400391 15.31466797 3.94400391 15.6875 5.0625 C16.06455078 6.16271484 16.06455078 6.16271484 16.44921875 7.28515625 C16.63097656 7.85105469 16.81273438 8.41695312 17 9 C15.20906809 9.08086147 13.41710372 9.13912702 11.625 9.1875 C10.12839844 9.23970703 10.12839844 9.23970703 8.6015625 9.29296875 C7.74304687 9.19628906 6.88453125 9.09960938 6 9 C5.34 8.01 4.68 7.02 4 6 C3.67 6.99 3.34 7.98 3 9 C2.01 9 1.02 9 0 9 C0 6.03 0 3.06 0 0 Z " fill="#FFFFFF" transform="translate(44,70)"/>
<path d="M0 0 C0.99 0 1.98 0 3 0 C3 1.65 3 3.3 3 5 C1.35 5 -0.3 5 -2 5 C-1.125 1.125 -1.125 1.125 0 0 Z " fill="#FFFFFF" transform="translate(102,54)"/>
</svg>
