<?xml version="1.0" encoding="UTF-8"?>
<svg id="Layer_1" data-name="Layer 1" xmlns="http://www.w3.org/2000/svg" viewBox="0 0 115 45">
  <defs>
    <style>
      .cls-1 {
        fill: none;
      }

      .cls-2 {
        stroke: #bd912e;
      }

      .cls-2, .cls-3 {
        stroke-miterlimit: 10;
        stroke-width: .06px;
      }

      .cls-2, .cls-4 {
        fill: #bd912e;
      }

      .cls-3 {
        fill: #595957;
        stroke: #595957;
      }

      .cls-5 {
        fill: #585856;
      }
    </style>
  </defs>
  <g>
    <g>
      <polygon class="cls-5" points="97.5 22.7 97.5 26.64 93.62 22.8 93.51 22.69 93.51 28.8 94.39 28.8 94.39 24.82 98.38 28.81 98.38 22.7 97.5 22.7"/>
      <polygon class="cls-5" points="64.77 22.7 64.77 26.64 60.9 22.8 60.79 22.69 60.79 28.8 61.66 28.8 61.66 24.82 65.65 28.81 65.65 22.7 64.77 22.7"/>
      <polygon class="cls-5" points="39.46 22.7 39.46 26.64 35.59 22.8 35.48 22.69 35.48 28.8 36.36 28.8 36.36 24.82 40.34 28.81 40.34 22.7 39.46 22.7"/>
      <path class="cls-5" d="M56.6,22.69c-1.94,0-3.51,1.57-3.51,3.51,0,1.03.45,1.96,1.16,2.6h2.08c-1.32-.13-2.34-1.25-2.34-2.6,0-1.44,1.17-2.61,2.61-2.61s2.61,1.17,2.61,2.61c0,1.35-1.03,2.46-2.34,2.6h2.08c.71-.64,1.16-1.57,1.16-2.6,0-1.94-1.57-3.51-3.51-3.51"/>
      <path class="cls-5" d="M89.33,22.69c-1.94,0-3.51,1.57-3.51,3.51,0,1.03.45,1.96,1.16,2.6h2.08c-1.32-.13-2.35-1.25-2.35-2.6,0-1.44,1.17-2.61,2.62-2.61s2.61,1.17,2.61,2.61c0,1.35-1.03,2.47-2.35,2.6h2.09c.71-.64,1.16-1.57,1.16-2.6,0-1.94-1.57-3.51-3.51-3.51"/>
      <polygon class="cls-5" points="73.1 27.9 73.1 22.7 72.21 22.7 72.21 28.8 75.77 28.8 75.77 27.9 73.1 27.9"/>
      <path class="cls-5" d="M84.3,25.31l-.11-.07.07-.11c.16-.25.25-.55.25-.86,0-.88-.71-1.59-1.58-1.59h-2.77v6.1h3.1c1.04,0,1.89-.85,1.89-1.9,0-.64-.32-1.23-.85-1.58M81.06,23.6h1.89c.39,0,.7.31.7.69s-.31.69-.7.69h-1.89v-1.38ZM83.39,27.88h0s-.12.02-.12.02h-2.21v-2.01h2.21c.56,0,1.01.45,1.01,1,0,.51-.38.93-.89.99"/>
      <path class="cls-5" d="M101,22.7h-1.95v6.11h1.96c.81,0,1.58-.33,2.15-.91.06-.06.12-.12.18-.18.47-.55.72-1.25.72-1.97,0-1.68-1.37-3.04-3.05-3.04M101,27.9h-1.05v-4.3h1.05c1.19,0,2.16.97,2.16,2.15s-.97,2.15-2.16,2.15"/>
      <rect class="cls-5" x="51.54" y="22.7" width=".89" height="6.1"/>
      <path class="cls-5" d="M109.06,25.69s-.02-.02-.04-.04c0-.01-.02-.02-.03-.03-.36-.39-.86-.62-1.39-.62h-1.4c-.39,0-.71-.32-.71-.71v-.03c0-.38.3-.64.68-.66h2.75v-.9h0,0s-2.72,0-2.72,0c-.87,0-1.6.67-1.6,1.55v.05c0,.33.1.64.28.9.06.1.13.18.2.25.29.29.71.44,1.13.44h1.36c.56,0,1.01.47,1.01,1.03s-.45.98-1.01.98h-.1s-2.8,0-2.8,0v.9h2.93c1.03,0,1.88-.84,1.88-1.88,0-.43-.15-.89-.43-1.23Z"/>
      <polygon class="cls-5" points="50.88 22.7 46.07 22.7 46.07 23.6 48.03 23.6 48.03 28.8 48.92 28.8 48.92 23.6 50.88 23.6 50.88 22.7"/>
      <g>
        <g>
          <rect class="cls-5" x="49.35" y="9.95" width=".89" height=".9"/>
          <rect class="cls-5" x="39.37" y="9.95" width=".89" height=".9"/>
          <rect class="cls-5" x="37.69" y="9.95" width=".89" height=".9"/>
          <rect class="cls-5" x="45.69" y="18.21" width=".89" height=".9"/>
          <rect class="cls-5" x="44.01" y="18.21" width=".89" height=".9"/>
          <rect class="cls-5" x="69.2" y="9.95" width=".89" height="7.64"/>
          <rect class="cls-5" x="108.59" y="9.95" width=".89" height="7.64"/>
          <path class="cls-5" d="M68.41,17.59h0v-7.64h-.89v6.74h-1.55v-5.2h-1.91s-.02,0-.03,0h-.01s-.02,0-.03,0h0c-1.7-.06-2.98,1.41-2.98,3.07,0,.72.25,1.41.72,1.96.05.06.11.12.18.18.56.57,1.31.88,2.1.89h0s1.07,0,1.07,0h0c-.1.34-.36.53-.62.59-.26.05-.59.03-.94.04-.01,0,.21,0-.69,0v.9h1.51c.33,0,1.39-.19,1.65-1.52h2.44s0,0,0,0ZM65.07,16.69h-.61s-.41,0-.41,0c-1.18,0-2.15-.95-2.15-2.12s.9-2.2,2.15-2.17h1.02v4.29Z"/>
          <path class="cls-5" d="M80.37,16.69h-3.1c-1.8,0-2.71-.92-2.71-2.83v-.25h-.9v.25c0,2.48,1.23,3.72,3.68,3.72h3.91v-7.64h-.9v6.74Z"/>
          <path class="cls-5" d="M78.91,11.48h-1.11c-.58,0-1.05.47-1.05,1.05,0,.16.04.32.11.46h-.63v.6h2.69v-.6h-1.11c-.25,0-.46-.21-.46-.46s.21-.46.46-.46h1.11v-.6Z"/>
          <path class="cls-5" d="M57.39,11.48s-.16,0-.17,0c-.37,0-.79.03-1.25.14-.68.15-2.36,1.07-3.15,3.18,0,0,0,.01,0,.02v-4.86h-.9v5.74h0c0,.5-.34.9-.82,1h-.09s-1.01,0-1.01,0c.17-.35.24-.8.24-1.35v-3.85h-.9v3.46c0,.59-.06,1-.19,1.24-.15.29-.44.47-.86.51h-1.96c.17-.35.24-.81.24-1.36v-3.85h-.9v3.46c0,.59-.06,1-.19,1.24-.17.32-.49.49-.97.51,0,0-.53,0-.54,0-.82-.05-1.26-.44-1.47-1.71-.02-.13-.03-.22-.04-.3-.16-1.79-1.66-3.19-3.49-3.19-1.94,0-3.51,1.57-3.51,3.51,0,1.03.45,1.95,1.16,2.6h2.08c-1.31-.13-2.34-1.24-2.34-2.6,0-1.44,1.17-2.61,2.61-2.61s2.61,1.17,2.61,2.61c0,1.35-1.03,2.46-2.34,2.6h2.08c.32-.29.58-.63.78-1.02l.02.04c.4.65,1.01.97,1.91.98h13.23c.81,0,1.57-.32,2.13-.89,0,0,0,0,0,0,.06-.06.12-.12.17-.18.17-.2.3-.41.42-.64,0,0,.26-.58.27-1.35.04-1.02-.61-2.98-2.86-3.05M58.91,15.87c-.34.44-.84.74-1.41.82h-4.33c.01-.06.03-.13.04-.2.04-.18.1-.39.16-.62.43-1.42,1.52-3.51,3.82-3.51.01,0,.08,0,.09,0,1.33,0,2.1,1.13,2.08,2.2,0,.49-.18.95-.46,1.31"/>
        </g>
        <g>
          <path class="cls-1" d="M102.42,12.36s-.08,0-.09,0c-2.3,0-3.39,2.09-3.82,3.51-.07.23-.12.44-.16.62-.02.07-.03.14-.04.2h4.33c.57-.08,1.07-.38,1.41-.82.28-.36.45-.82.46-1.31.02-1.07-.75-2.2-2.08-2.2Z"/>
          <path class="cls-5" d="M106.86,9.95v6.74h-2.32s.13-.13.18-.19c.17-.2.3-.41.42-.64,0,0,.26-.58.27-1.35.03-1.02-.61-2.98-2.87-3.05-.01,0-.16,0-.17,0-.37,0-.79.03-1.24.14-.68.15-2.37,1.07-3.15,3.18,0,0,0,.01,0,.02,0,0,0,0,0,0v-2.42h-.89v3.32h0c0,.5-.35.9-.82,1h-.85,0s-.07,0-.07,0v-1.26c0-1.69-1.39-3.05-3.08-3.05h-1.67s2.69-2.43,2.69-2.43h-1.3l-3.66,3.32h3.95c1.19.01,2.16.97,2.18,2.16v1.26h-7.41s0,0,0,0v-5.21h-1.91s-.02,0-.03,0h-.01s-.02,0-.03,0h0c-1.7-.06-2.98,1.41-2.98,3.07,0,.72.26,1.41.72,1.96.05.06.11.12.17.18.56.57,1.31.88,2.1.89h0s1.06,0,1.06,0h0,0c-.1.33-.36.53-.62.59-.26.05-.59.03-.94.04-.01,0,.21,0-.69,0v.9h1.51c.32,0,1.38-.19,1.65-1.52h20.75v-7.64h-.9ZM86.11,16.69h-.61s-.41,0-.41,0c-1.18,0-2.15-.95-2.15-2.12s.9-2.2,2.15-2.17h1.02v4.29ZM104.04,15.87c-.34.44-.84.74-1.41.82h-4.33c.01-.06.03-.13.04-.2.04-.18.1-.39.16-.62.43-1.42,1.52-3.51,3.82-3.51.01,0,.08,0,.09,0,1.33,0,2.1,1.13,2.08,2.2,0,.49-.18.95-.46,1.31Z"/>
        </g>
      </g>
      <g>
        <polygon class="cls-1" points="43.62 24.78 42.81 26.68 44.43 26.68 43.62 24.78"/>
        <path class="cls-5" d="M42.44,27.56h2.37l.52,1.24h.89l-2.16-5.04-.44-1.07-.44,1.07-2.17,5.04h.89l.53-1.24ZM43.62,24.78l.81,1.9h-1.62l.81-1.9Z"/>
        <polygon class="cls-1" points="68.92 24.78 68.12 26.68 69.73 26.68 68.92 24.78"/>
        <path class="cls-5" d="M67.74,27.56h2.37l.52,1.24h.89l-2.16-5.04-.44-1.07-.44,1.07-2.17,5.04h.89l.53-1.24ZM68.92,24.78l.81,1.9h-1.62l.81-1.9Z"/>
      </g>
    </g>
    <g>
      <g>
        <g>
          <path class="cls-4" d="M17.32,4.14c-4.4,0-8.27,2.32-10.46,5.8h1.6c2.01-2.71,5.23-4.48,8.86-4.48,6.07,0,11.01,4.94,11.01,11.01,0,3.97-2.11,7.46-5.28,9.4h2.25c2.66-2.27,4.36-5.64,4.36-9.4,0-6.8-5.54-12.34-12.34-12.34Z"/>
          <path class="cls-4" d="M4.98,16.48c0,3.76,1.69,7.13,4.36,9.4h2.24c-3.16-1.94-5.28-5.42-5.28-9.4,0-1,.14-1.97.39-2.89h-1.37c-.22.93-.34,1.89-.34,2.89Z"/>
          <g>
            <path class="cls-4" d="M5.7,12.35h1.42c.05-.12.1-.24.15-.35h-1.44c-.05.12-.09.23-.13.35Z"/>
            <path class="cls-4" d="M5.44,13.15h1.38c.04-.12.08-.24.12-.35h-1.4c-.04.12-.07.23-.1.35Z"/>
            <path class="cls-4" d="M6.4,10.75h1.52c.07-.12.15-.24.23-.35h-1.55c-.07.12-.13.23-.19.35Z"/>
            <path class="cls-4" d="M6.01,11.55h1.46c.06-.12.12-.24.18-.35h-1.49c-.06.12-.11.23-.16.35Z"/>
          </g>
        </g>
        <path class="cls-5" d="M17.33,6.72c-5.39,0-9.78,4.39-9.78,9.78,0,4.44,2.97,8.19,7.03,9.38h1.21c-1.2-.2-2.31-.62-3.32-1.21-.06-.03-.12-.07-.18-.11,0,0,0,0-.01,0-3.18-1.94-5.01-5.74-4.32-9.71.82-4.72,4.79-8.1,9.32-7.97.52,0,1.04.05,1.57.13,2.88.49,5.23,2.22,6.59,4.55.01.02.02.04.03.05.02.03.04.07.06.1.83,1.41,1.3,3.05,1.3,4.79,0,4.72-3.46,8.64-7.97,9.38h1.21c4.06-1.19,7.03-4.94,7.03-9.38,0-5.39-4.39-9.78-9.78-9.78Z"/>
      </g>
      <path class="cls-5" d="M5.52,26.83h23.58c.3,0,.54.24.54.54v1.12c0,.17-.1.3-.3.3H5.25c-.15,0-.27-.12-.27-.27v-1.15c0-.3.24-.54.54-.54Z"/>
    </g>
  </g>
  <g>
    <path class="cls-3" d="M5.37,40.1l.23-.26c.51.47.99.69,1.68.69s1.18-.39,1.18-.93h0c0-.51-.26-.79-1.32-1.01-1.12-.23-1.57-.61-1.57-1.31h0c0-.71.63-1.24,1.5-1.24.68,0,1.13.19,1.6.57l-.22.27c-.44-.38-.88-.53-1.39-.53-.69,0-1.14.39-1.14.88h0c0,.51.25.81,1.36,1.03,1.08.22,1.54.61,1.54,1.29h0c0,.77-.65,1.29-1.55,1.29-.75,0-1.32-.25-1.88-.75Z"/>
    <path class="cls-3" d="M12.96,36.07h.33l2.18,4.7h-.38l-.59-1.31h-2.76l-.59,1.31h-.36l2.18-4.7ZM14.34,39.16l-1.23-2.7-1.23,2.7h2.46Z"/>
    <path class="cls-3" d="M16.72,36.11h.39l1.83,4.3,1.84-4.3h.37l-2.06,4.7h-.31l-2.06-4.7Z"/>
    <path class="cls-3" d="M23.46,36.11h3.32v.32h-2.98v1.84h2.68v.32h-2.68v1.88h3.01v.32h-3.36v-4.67Z"/>
    <path class="cls-3" d="M29.12,40.21h.44v.57h-.44v-.57Z"/>
    <path class="cls-3" d="M32.19,36.11h.35v4.67h-.35v-4.67Z"/>
    <path class="cls-3" d="M35.3,36.11h.33l3.22,4.06v-4.06h.33v4.67h-.26l-3.29-4.15v4.15h-.33v-4.67Z"/>
    <path class="cls-3" d="M41.51,36.11h.39l1.83,4.3,1.84-4.3h.37l-2.06,4.7h-.31l-2.06-4.7Z"/>
    <path class="cls-3" d="M48.25,36.11h3.32v.32h-2.98v1.84h2.68v.32h-2.68v1.88h3.01v.32h-3.36v-4.67Z"/>
    <path class="cls-3" d="M53.76,40.1l.23-.26c.51.47.99.69,1.67.69s1.18-.39,1.18-.93h0c0-.51-.26-.79-1.32-1.01-1.12-.23-1.57-.61-1.57-1.31h0c0-.71.63-1.24,1.5-1.24.68,0,1.13.19,1.6.57l-.22.27c-.44-.38-.88-.53-1.39-.53-.69,0-1.14.39-1.14.88h0c0,.51.25.81,1.36,1.03,1.08.22,1.54.61,1.54,1.29h0c0,.77-.65,1.29-1.55,1.29-.75,0-1.32-.25-1.88-.75Z"/>
    <path class="cls-3" d="M60.86,36.43h-1.63v-.32h3.6v.32h-1.63v4.35h-.35v-4.35Z"/>
    <path class="cls-3" d="M64.41,40.21h.44v.57h-.44v-.57Z"/>
    <path class="cls-2" d="M67.43,36.11h1.7c1.03,0,1.73.53,1.73,1.43h0c0,.99-.85,1.5-1.82,1.5h-1.26v1.74h-.35v-4.67ZM69.06,38.72c.87,0,1.46-.45,1.46-1.15h0c0-.75-.57-1.14-1.41-1.14h-1.32v2.29h1.28Z"/>
    <path class="cls-2" d="M73.22,36.11h1.96c.57,0,1.03.18,1.31.46.22.22.35.53.35.87h0c0,.79-.58,1.24-1.37,1.35l1.54,2h-.44l-1.49-1.94h-1.53v1.94h-.35v-4.67ZM75.14,38.53c.78,0,1.36-.39,1.36-1.07h0c0-.64-.49-1.03-1.34-1.03h-1.6v2.1h1.57Z"/>
    <path class="cls-2" d="M79.18,38.46h0c0-1.29.94-2.43,2.36-2.43s2.34,1.13,2.34,2.4h0c0,1.29-.94,2.43-2.36,2.43s-2.34-1.13-2.34-2.4ZM83.51,38.46h0c0-1.17-.84-2.12-2-2.12s-1.98.93-1.98,2.09h0c0,1.17.84,2.12,2,2.12s1.98-.93,1.98-2.09Z"/>
    <path class="cls-2" d="M86.06,40.1l.23-.26c.51.47.99.69,1.68.69s1.18-.39,1.18-.93h0c0-.51-.26-.79-1.32-1.01-1.12-.23-1.57-.61-1.57-1.31h0c0-.71.63-1.24,1.5-1.24.68,0,1.13.19,1.6.57l-.22.27c-.44-.38-.88-.53-1.39-.53-.69,0-1.14.39-1.14.88h0c0,.51.25.81,1.36,1.03,1.08.22,1.54.61,1.54,1.29h0c0,.77-.65,1.29-1.55,1.29-.75,0-1.32-.25-1.88-.75Z"/>
    <path class="cls-2" d="M91.96,36.11h1.7c1.03,0,1.73.53,1.73,1.43h0c0,.99-.85,1.5-1.82,1.5h-1.26v1.74h-.35v-4.67ZM93.59,38.72c.87,0,1.46-.45,1.46-1.15h0c0-.75-.57-1.14-1.41-1.14h-1.32v2.29h1.28Z"/>
    <path class="cls-2" d="M97.76,36.11h3.32v.32h-2.98v1.84h2.68v.32h-2.68v1.88h3.01v.32h-3.36v-4.67Z"/>
    <path class="cls-2" d="M103.57,36.11h1.96c.57,0,1.03.18,1.31.46.22.22.35.53.35.87h0c0,.79-.58,1.24-1.37,1.35l1.54,2h-.44l-1.49-1.94h-1.53v1.94h-.35v-4.67ZM105.49,38.53c.78,0,1.36-.39,1.36-1.07h0c0-.64-.49-1.03-1.34-1.03h-1.6v2.1h1.58Z"/>
    <path class="cls-2" d="M109.58,40.21h.44v.57h-.44v-.57Z"/>
  </g>
</svg>