<?xml version="1.0" encoding="UTF-8"?>
<svg id="Layer_1" xmlns="http://www.w3.org/2000/svg" version="1.1" viewBox="45 145 340 135">
  <!-- Generator: Adobe Illustrator 29.6.1, SVG Export Plug-In . SVG Version: 2.1.1 Build 9)  -->
  <defs>
    <style>
      .st0 {
        fill: none;
      }

      .st1 {
        fill: #575756;
      }

      .st2 {
        fill: #be9115;
      }
    </style>
  </defs>
  <g>
    <g>
      <polygon class="st1" points="344.04 210.9 344.04 223.39 331.78 211.24 331.44 210.89 331.44 230.2 334.21 230.2 334.21 217.61 346.82 230.23 346.82 210.9 344.04 210.9"/>
      <polygon class="st1" points="240.52 210.9 240.52 223.39 228.27 211.24 227.92 210.89 227.92 230.2 230.69 230.2 230.69 217.61 243.3 230.23 243.3 210.9 240.52 210.9"/>
      <polygon class="st1" points="160.47 210.9 160.47 223.39 148.21 211.24 147.86 210.89 147.86 230.2 150.64 230.2 150.64 217.61 163.24 230.23 163.24 210.9 160.47 210.9"/>
      <path class="st1" d="M214.68,210.88c-6.13,0-11.09,4.97-11.09,11.09,0,3.27,1.42,6.19,3.66,8.22h6.59c-4.16-.43-7.41-3.94-7.41-8.22,0-4.56,3.7-8.26,8.26-8.26s8.26,3.7,8.26,8.26c0,4.28-3.25,7.79-7.41,8.22h6.59c2.24-2.03,3.66-4.95,3.66-8.22,0-6.13-4.96-11.09-11.09-11.09"/>
      <path class="st1" d="M318.21,210.88c-6.14,0-11.11,4.97-11.11,11.11,0,3.27,1.42,6.2,3.66,8.23h6.59c-4.17-.43-7.42-3.95-7.42-8.23,0-4.57,3.7-8.27,8.28-8.27s8.27,3.7,8.27,8.27c0,4.28-3.26,7.8-7.42,8.23h6.6c2.25-2.03,3.66-4.96,3.66-8.23,0-6.14-4.97-11.11-11.11-11.11"/>
      <polygon class="st1" points="266.86 227.35 266.86 210.9 264.04 210.9 264.04 230.2 275.31 230.2 275.31 227.35 266.86 227.35"/>
      <path class="st1" d="M302.31,219.18l-.34-.22.22-.33c.52-.8.79-1.73.79-2.71,0-2.77-2.24-5.03-5-5.03h-8.78v19.31h9.8c3.29,0,5.97-2.69,5.97-6,0-2.01-1-3.89-2.68-5.01M292.04,213.78h5.98c1.23,0,2.22.98,2.22,2.19s-1,2.19-2.22,2.19h-5.98v-4.38ZM299.42,227.3h0s-.39.05-.39.05h-6.99v-6.36h6.98c1.76,0,3.2,1.42,3.2,3.17,0,1.61-1.2,2.95-2.8,3.14"/>
      <path class="st1" d="M355.12,210.9h-6.16v19.32h6.19c2.57,0,4.98-1.04,6.79-2.87.2-.2.4-.39.55-.58,1.48-1.73,2.29-3.95,2.29-6.24,0-5.31-4.34-9.63-9.66-9.63M355.12,227.36h-3.32v-13.61h3.32c3.76,0,6.83,3.05,6.83,6.81s-3.07,6.8-6.83,6.8"/>
      <rect class="st1" x="198.66" y="210.91" width="2.83" height="19.29"/>
      <path class="st1" d="M380.62,220.37s-.07-.07-.11-.13c-.03-.03-.06-.06-.09-.1-1.13-1.24-2.73-1.95-4.39-1.95h-4.42c-1.24,0-2.26-1.01-2.26-2.25v-.11c0-1.21.96-2.02,2.15-2.08h8.7v-2.85h0,0s-8.6,0-8.6,0c-2.75,0-5.07,2.12-5.07,4.89v.16c0,1.04.3,2.03.88,2.84.19.3.4.57.64.81.93.9,2.25,1.4,3.56,1.4h4.31c1.77,0,3.2,1.49,3.2,3.24s-1.43,3.11-3.2,3.11h-.31s-8.86,0-8.86,0v2.84h9.28c3.27,0,5.94-2.67,5.94-5.95,0-1.36-.47-2.82-1.34-3.89Z"/>
      <polygon class="st1" points="196.58 210.9 181.37 210.9 181.37 213.76 187.56 213.76 187.56 230.2 190.39 230.2 190.39 213.76 196.58 213.76 196.58 210.9"/>
      <g>
        <g>
          <rect class="st1" x="191.73" y="170.58" width="2.81" height="2.85"/>
          <rect class="st1" x="160.16" y="170.58" width="2.81" height="2.85"/>
          <rect class="st1" x="154.85" y="170.58" width="2.81" height="2.85"/>
          <rect class="st1" x="180.16" y="196.72" width="2.81" height="2.86"/>
          <rect class="st1" x="174.86" y="196.72" width="2.81" height="2.86"/>
          <rect class="st1" x="254.53" y="170.58" width="2.83" height="24.16"/>
          <rect class="st1" x="379.12" y="170.59" width="2.82" height="24.15"/>
          <path class="st1" d="M252.02,194.74h0v-24.16h-2.83v21.32h-4.92v-16.45h-6.04s-.06,0-.08,0h-.04s-.06,0-.09,0h0c-5.38-.18-9.41,4.45-9.41,9.7,0,2.27.81,4.48,2.27,6.2.16.19.35.38.55.58,1.77,1.8,4.13,2.8,6.65,2.82h0s3.38-.01,3.38-.01h-.02c-.3,1.06-1.13,1.67-1.97,1.88-.84.16-1.87.09-2.98.11-.03,0,.68,0-2.19,0v2.84h4.77c1.03,0,4.38-.59,5.22-4.82h7.73s0,0,0,0ZM241.45,191.9h0l-1.93-.02h-1.29c-3.74,0-6.79-3-6.79-6.7s2.85-6.97,6.79-6.87h3.22v13.59Z"/>
          <path class="st1" d="M289.86,191.92h-9.79c-5.7,0-8.57-2.92-8.57-8.94v-.79h-2.84v.79c0,7.84,3.88,11.77,11.65,11.77h12.38v-24.16h-2.83v21.33Z"/>
          <path class="st1" d="M285.25,175.43h-3.52c-1.84,0-3.33,1.49-3.33,3.33,0,.52.13,1.01.34,1.45h-2v1.88h8.51v-1.88h-3.52c-.8,0-1.46-.65-1.46-1.45s.66-1.44,1.46-1.44h3.52v-1.88Z"/>
          <path class="st1" d="M217.17,175.41s-.5,0-.55,0c-1.18-.02-2.49.11-3.94.43-2.14.48-7.48,3.37-9.96,10.06-.01.02-.01.05-.02.07v-15.39h-2.83v18.16h0c0,1.57-1.09,2.86-2.6,3.16h-.27s-3.21,0-3.21,0c.53-1.09.77-2.54.77-4.28v-12.19h-2.83v10.94c0,1.86-.2,3.15-.61,3.92-.48.93-1.38,1.47-2.71,1.62h-6.2c.53-1.1.77-2.55.77-4.29v-12.19h-2.83v10.94c0,1.86-.2,3.15-.6,3.92-.53,1.01-1.54,1.53-3.07,1.61-.03,0-1.68,0-1.7,0-2.6-.17-3.98-1.38-4.66-5.42-.06-.42-.1-.7-.14-.95-.5-5.66-5.25-10.09-11.04-10.09-6.13,0-11.09,4.96-11.09,11.09,0,3.26,1.42,6.18,3.66,8.21h6.58c-4.16-.42-7.41-3.94-7.41-8.21,0-4.56,3.7-8.25,8.26-8.25s8.25,3.69,8.25,8.25c0,4.27-3.24,7.79-7.4,8.21h6.58c1.01-.91,1.85-2.01,2.47-3.23l.05.14c1.28,2.07,3.18,3.06,6.03,3.09h41.85c2.55,0,4.95-1,6.74-2.82,0,0,.01-.01.02-.02.2-.2.38-.38.54-.56.53-.62.96-1.3,1.31-2.02,0,0,.83-1.83.84-4.27.11-3.23-1.94-9.42-9.06-9.64M221.97,189.32c-1.07,1.38-2.65,2.34-4.47,2.58h-13.7c.04-.19.09-.41.14-.63.13-.57.3-1.23.52-1.95,1.36-4.49,4.8-11.1,12.09-11.1.04,0,.25,0,.29,0,4.22,0,6.64,3.57,6.58,6.96-.02,1.56-.56,3-1.45,4.14"/>
        </g>
        <g>
          <path class="st0" d="M359.63,178.19s-.25,0-.29,0c-7.29,0-10.73,6.61-12.09,11.12-.22.72-.39,1.38-.52,1.95-.05.22-.1.44-.14.63h13.7c1.82-.24,3.39-1.21,4.46-2.59.89-1.15,1.43-2.58,1.46-4.15.06-3.39-2.36-6.97-6.58-6.97Z"/>
          <path class="st1" d="M373.64,170.59v21.31h-7.34s.4-.41.55-.59c.52-.62.96-1.3,1.32-2.02,0,0,.83-1.83.85-4.27.11-3.23-1.94-9.42-9.06-9.64-.04,0-.5,0-.54,0-1.18-.03-2.49.11-3.94.43-2.14.48-7.48,3.37-9.96,10.06-.01.02-.01.05-.02.07,0,0-.01,0-.02-.01v-7.66h-2.83v10.49h0c0,1.57-1.09,2.86-2.6,3.16h-2.7,0s-.22,0-.22,0v-3.98c-.03-5.33-4.39-9.66-9.74-9.66l-5.28-.02,8.49-7.67h-4.11l-11.59,10.51h1.13l11.35.04c3.77,0,6.84,3.04,6.89,6.8v3.98h-23.45v.02h0v-16.49h-6.04s-.06,0-.09,0h-.04s-.06,0-.08,0h0c-5.38-.18-9.41,4.45-9.41,9.7,0,2.27.81,4.48,2.27,6.2.16.19.35.38.55.58,1.77,1.8,4.13,2.8,6.66,2.82h0s3.36,0,3.36,0h.01-.01c-.3,1.06-1.13,1.66-1.97,1.87-.84.16-1.87.09-2.98.11-.03,0,.68,0-2.19,0v2.84h4.77c1.03,0,4.37-.59,5.21-4.82l65.64-.02v-24.13h-2.84ZM308.02,191.9h0l-1.93-.02h-1.29c-3.75,0-6.79-3-6.79-6.7s2.85-6.97,6.79-6.87h3.22v13.59ZM364.75,189.31c-1.07,1.38-2.65,2.35-4.46,2.59h-13.7c.04-.2.09-.41.14-.63.13-.57.3-1.24.52-1.95,1.36-4.5,4.8-11.12,12.09-11.12.04,0,.25,0,.29,0,4.22,0,6.63,3.58,6.58,6.97-.03,1.56-.57,3-1.46,4.15Z"/>
        </g>
      </g>
      <g>
        <polygon class="st0" points="173.62 217.49 171.06 223.5 176.18 223.5 173.62 217.49"/>
        <path class="st1" d="M169.87,226.28h7.5l1.66,3.93h2.83l-6.84-15.93-1.39-3.4-1.39,3.4-6.86,15.93h2.82l1.67-3.93ZM173.62,217.49l2.56,6.01h-5.11l2.56-6.01Z"/>
        <polygon class="st0" points="253.66 217.49 251.1 223.5 256.22 223.5 253.66 217.49"/>
        <path class="st1" d="M249.91,226.28h7.5l1.66,3.93h2.82l-6.84-15.93-1.39-3.4-1.39,3.4-6.86,15.93h2.82l1.67-3.93ZM253.66,217.49l2.56,6.01h-5.11l2.56-6.01Z"/>
      </g>
    </g>
    <g>
      <g>
        <g>
          <path class="st2" d="M90.43,152.21c-13.93,0-26.17,7.34-33.08,18.35h5.06c6.35-8.58,16.54-14.16,28.02-14.16,19.21,0,34.84,15.63,34.84,34.84,0,12.57-6.69,23.6-16.69,29.73h7.1c8.42-7.17,13.78-17.83,13.78-29.73,0-21.52-17.51-39.03-39.03-39.03Z"/>
          <path class="st2" d="M51.4,191.24c0,11.9,5.36,22.56,13.78,29.73h7.1c-10-6.13-16.69-17.16-16.69-29.73,0-3.16.43-6.22,1.22-9.14h-4.33c-.7,2.93-1.09,5.99-1.09,9.14Z"/>
          <g>
            <path class="st2" d="M53.65,178.17h4.49c.15-.38.31-.75.48-1.12h-4.54c-.14.37-.29.74-.42,1.12Z"/>
            <path class="st2" d="M52.85,180.7h4.37c.12-.37.25-.75.38-1.12h-4.42c-.12.37-.22.74-.32,1.12Z"/>
            <path class="st2" d="M55.88,173.11h4.81c.23-.38.47-.75.71-1.12h-4.91c-.21.37-.42.74-.61,1.12Z"/>
            <path class="st2" d="M54.66,175.64h4.63c.19-.37.38-.75.58-1.12h-4.71c-.18.37-.34.74-.51,1.12Z"/>
          </g>
        </g>
        <path class="st1" d="M90.47,160.36c-17.05,0-30.93,13.88-30.93,30.93,0,14.03,9.4,25.91,22.23,29.67h3.84c-3.78-.62-7.32-1.95-10.49-3.84-.19-.11-.37-.22-.56-.34-.01,0-.03-.02-.04-.03-10.05-6.13-15.85-18.16-13.67-30.72,2.6-14.94,15.14-25.63,29.47-25.2,1.64,0,3.3.14,4.97.43,9.11,1.54,16.54,7.01,20.86,14.38.03.06.07.11.1.17.06.11.12.21.18.32,2.61,4.46,4.12,9.63,4.12,15.16,0,14.92-10.94,27.34-25.21,29.67h3.84c12.83-3.77,22.23-15.64,22.23-29.67,0-17.05-13.87-30.93-30.93-30.93Z"/>
      </g>
      <path class="st1" d="M53.11,223.99h74.6c.95,0,1.72.77,1.72,1.72v3.53c0,.55-.3.96-.96.96H52.25c-.48,0-.86-.38-.86-.86v-3.63c0-.95.77-1.72,1.72-1.72Z"/>
    </g>
  </g>
  <g>
    <path class="st2" d="M51.11,268.1v-2.06h1.93v2.06h-1.93Z"/>
    <path class="st2" d="M66.43,256.14h1.45v11.98c0,2.49-2.14,4.61-4.91,4.58-1.1,0-2.36-.54-2.65-.72,0,0-.08-.67-.16-1.34,1.1.62,2.25.7,2.65.7,1.88,0,3.38-1.15,3.62-3.22v-11.98Z"/>
    <path class="st2" d="M79.03,268.1c-3.94,0-4.26-3.49-4.26-4.88v-12.52h1.45v12.73c0,2.12,1.21,3.3,3.16,3.3h1.29v1.37h-1.64Z"/>
    <path class="st2" d="M85.33,268.1h-4.88v-1.37h4.88v1.37Z"/>
    <path class="st2" d="M90,268.1h-4.88v-1.37h4.88v1.37Z"/>
    <path class="st2" d="M94.66,268.1h-4.88v-1.37h4.88v1.37Z"/>
    <path class="st2" d="M99.32,268.1h-4.88v-1.37h4.88v1.37Z"/>
    <path class="st2" d="M103.99,268.1h-4.88v-1.37h4.88v1.37Z"/>
    <path class="st2" d="M103.88,268.1v-1.37h3.59v-.56c0-3.19,1.53-6.33,5.17-6.73.67-2.12,2.28-3.78,4.69-3.78s4.64,1.58,4.64,4.13v8.31h-18.1ZM112.35,260.86c-2.31.38-3.43,2.71-3.43,5.31v.56h3.35v-4.67c0-.4.03-.8.08-1.21ZM113.66,266.73h2.76v-3.43c0-1.64-1.18-2.44-2.65-2.47-.08.4-.11.8-.11,1.23v4.67ZM114.15,259.44c1.61.16,3.73,1.26,3.73,3.83v3.46h2.65v-6.78c0-1.69-1.13-2.92-3.19-2.92-1.5,0-2.6.96-3.19,2.41Z"/>
    <path class="st2" d="M136.03,260.06c-.16-1.98-1.1-2.6-2.79-2.6-1.53,0-2.79.46-2.98,2.09h-1.56c.38-2.49,2.23-3.43,4.53-3.43,2.68,0,4.29,1.23,4.29,4v7.99h-9.14v-1.37h7.64v-6.68Z"/>
    <path class="st2" d="M148.52,256.14h1.45v11.98c0,2.49-2.14,4.61-4.91,4.58-1.1,0-2.36-.54-2.65-.72,0,0-.08-.67-.16-1.34,1.1.62,2.25.7,2.65.7,1.88,0,3.38-1.15,3.62-3.22v-11.98ZM150.05,252.5h-1.69v-1.8h1.69v1.8Z"/>
    <path class="st2" d="M158.32,268.1h-1.45v-17.4h1.45v17.4Z"/>
    <path class="st1" d="M163.74,268.1v-2.06h1.93v2.06h-1.93Z"/>
    <path class="st1" d="M179.05,256.14h1.45v11.98c0,2.49-2.14,4.61-4.91,4.58-1.1,0-2.36-.54-2.65-.72,0,0-.08-.67-.16-1.34,1.1.62,2.25.7,2.65.7,1.88,0,3.38-1.15,3.62-3.22v-11.98Z"/>
    <path class="st1" d="M191.66,268.1c-3.94,0-4.26-3.49-4.26-4.88v-12.52h1.45v12.73c0,2.12,1.21,3.3,3.16,3.3h1.29v1.37h-1.64Z"/>
    <path class="st1" d="M197.96,268.1h-4.88v-1.37h4.88v1.37Z"/>
    <path class="st1" d="M202.62,268.1h-4.88v-1.37h4.88v1.37Z"/>
    <path class="st1" d="M207.28,268.1h-4.88v-1.37h4.88v1.37Z"/>
    <path class="st1" d="M207.98,266.73c.97,0,3.11-.56,3.22-3.22.16-2.92,1.96-6.17,5.63-6.17s5.52,3.22,5.66,6.09c.27,1.77,1.18,3.3,3.43,3.3h1.37v1.37h-1.15c-1.85,0-3.46-1.37-3.91-2.28-.67,2.41-2.52,4.34-5.39,4.34-2.6,0-4.42-1.61-5.17-3.67-.48.78-1.61,1.61-3.43,1.61h-1.15v-1.37h.91ZM216.83,258.66c-2.9,0-4.07,2.87-4.07,5.09s1.18,5.09,4.07,5.09,4.1-2.84,4.1-5.09-1.18-5.09-4.1-5.09Z"/>
    <path class="st1" d="M227.04,268.1v-1.37h2.2c1.98,0,3.19-1.18,3.19-3.3v-6.43h1.45v5.76c.05,2.22,1.18,3.97,3.65,3.97h1.1v1.37h-.86c-2.06,0-3.7-1.34-4.24-2.65-.46,1.34-1.5,2.65-3.91,2.65h-2.57ZM230.28,253.35h-1.69v-1.82h1.69v1.82ZM232.08,250.35h-1.61v-1.72h1.61v1.72ZM233.95,253.35h-1.69v-1.82h1.69v1.82Z"/>
    <path class="st1" d="M238.37,268.1v-1.37h2.2c1.98,0,3.19-1.18,3.19-3.3v-6.43h1.45v5.76c.05,2.22,1.18,3.97,3.65,3.97h1.1v1.37h-.86c-2.06,0-3.7-1.34-4.24-2.65-.46,1.34-1.5,2.65-3.91,2.65h-2.57ZM241.62,253.35h-1.69v-1.82h1.69v1.82ZM245.29,253.35h-1.69v-1.82h1.69v1.82Z"/>
    <path class="st1" d="M249.82,268.1v-1.37h2.31c1.98,0,3.19-1.18,3.19-3.3v-6.43h1.45v5.9c0,2.17,1.07,4.16,3.46,4.16,1.98,0,3.19-1.23,3.19-3.32v-6.73h1.45v5.9c0,2.17,1.07,4.16,3.46,4.16,1.98,0,3.19-1.23,3.19-3.32v-7.59h1.45v7.35c0,1.39-.32,4.91-4.26,4.91-1.88,0-3.27-1.23-4.18-2.65-.51,1.58-2.01,2.65-3.91,2.65-1.58,0-2.95-.7-3.78-2.2-.16-.21-.29-.46-.43-.7-.46,1.31-1.5,2.6-3.89,2.6h-2.68Z"/>
    <path class="st1" d="M281.3,268.1h-1.45v-17.4h1.45v17.4Z"/>
    <path class="st1" d="M286.72,268.1v-2.06h1.93v2.06h-1.93Z"/>
    <path class="st1" d="M302.03,256.14h1.45v11.98c0,2.49-2.14,4.61-4.91,4.58-1.1,0-2.36-.54-2.65-.72,0,0-.08-.67-.16-1.34,1.1.62,2.25.7,2.65.7,1.88,0,3.38-1.15,3.62-3.22v-11.98Z"/>
    <path class="st1" d="M314.64,268.1c-3.94,0-4.26-3.49-4.26-4.88v-12.52h1.45v12.73c0,2.12,1.21,3.3,3.16,3.3h1.29v1.37h-1.64Z"/>
    <path class="st1" d="M320.94,268.1h-4.88v-1.37h4.88v1.37Z"/>
    <path class="st1" d="M325.6,268.1h-4.88v-1.37h4.88v1.37Z"/>
    <path class="st1" d="M330.26,268.1h-4.88v-1.37h4.88v1.37Z"/>
    <path class="st1" d="M334.93,268.1h-4.88v-1.37h4.88v1.37Z"/>
    <path class="st1" d="M339.59,268.1h-4.88v-1.37h4.88v1.37Z"/>
    <path class="st1" d="M339.37,268.1v-1.37h13.51l.03-1.53c.05-3.57-1.55-7.69-6-7.69-2.31,0-4,1.05-4.29,3.16h-1.37c.24-3.14,2.81-4.53,5.66-4.53,5.25,0,7.48,4.29,7.48,9.06v2.9h-15.01ZM347.71,252.5h-1.69v-1.8h1.69v1.8Z"/>
    <path class="st1" d="M368.44,260.06c-.16-1.98-1.1-2.6-2.79-2.6-1.53,0-2.79.46-2.98,2.09h-1.55c.38-2.49,2.22-3.43,4.53-3.43,2.68,0,4.29,1.23,4.29,4v7.99h-9.14v-1.37h7.64v-6.68Z"/>
    <path class="st1" d="M378.29,268.1h-1.45v-17.4h1.45v17.4Z"/>
  </g>
</svg>