<svg width="697" height="18" viewBox="0 0 697 18" fill="none" xmlns="http://www.w3.org/2000/svg">
<g clip-path="url(#clip0_4_671)">
<rect width="697" height="18" rx="9" fill="#E1E1EA"/>
<line x1="10.3536" y1="0.353553" x2="0.353554" y2="10.3536" stroke="#456237" stroke-opacity="0.2"/>
<line x1="33.3536" y1="0.353553" x2="10.3536" y2="23.3536" stroke="#456237" stroke-opacity="0.2"/>
<line x1="56.3536" y1="0.353553" x2="33.3536" y2="23.3536" stroke="#456237" stroke-opacity="0.2"/>
<line x1="79.3536" y1="0.353553" x2="56.3536" y2="23.3536" stroke="#456237" stroke-opacity="0.2"/>
<line x1="102.354" y1="0.353553" x2="79.3536" y2="23.3536" stroke="#456237" stroke-opacity="0.2"/>
<line x1="125.354" y1="0.353553" x2="102.354" y2="23.3536" stroke="#456237" stroke-opacity="0.2"/>
<line x1="148.354" y1="0.353553" x2="125.354" y2="23.3536" stroke="#456237" stroke-opacity="0.2"/>
<line x1="171.354" y1="0.353553" x2="148.354" y2="23.3536" stroke="#456237" stroke-opacity="0.2"/>
<line x1="194.354" y1="0.353553" x2="171.354" y2="23.3536" stroke="#456237" stroke-opacity="0.2"/>
<line x1="217.354" y1="0.353553" x2="194.354" y2="23.3536" stroke="#456237" stroke-opacity="0.2"/>
<line x1="240.354" y1="0.353553" x2="217.354" y2="23.3536" stroke="#456237" stroke-opacity="0.2"/>
<line x1="263.354" y1="0.353553" x2="240.354" y2="23.3536" stroke="#456237" stroke-opacity="0.2"/>
<line x1="286.354" y1="0.353553" x2="263.354" y2="23.3536" stroke="#456237" stroke-opacity="0.2"/>
<line x1="309.354" y1="0.353553" x2="286.354" y2="23.3536" stroke="#456237" stroke-opacity="0.2"/>
<line x1="332.354" y1="0.353553" x2="309.354" y2="23.3536" stroke="#456237" stroke-opacity="0.2"/>
<line x1="355.354" y1="0.353553" x2="332.354" y2="23.3536" stroke="#456237" stroke-opacity="0.2"/>
<line x1="378.354" y1="0.353553" x2="355.354" y2="23.3536" stroke="#456237" stroke-opacity="0.2"/>
<line x1="401.354" y1="0.353553" x2="378.354" y2="23.3536" stroke="#456237" stroke-opacity="0.2"/>
<line x1="424.354" y1="0.353553" x2="401.354" y2="23.3536" stroke="#456237" stroke-opacity="0.2"/>
<line x1="447.354" y1="0.353553" x2="424.354" y2="23.3536" stroke="#456237" stroke-opacity="0.2"/>
<line x1="470.354" y1="0.353553" x2="447.354" y2="23.3536" stroke="#456237" stroke-opacity="0.2"/>
<line x1="493.354" y1="0.353553" x2="470.354" y2="23.3536" stroke="#456237" stroke-opacity="0.2"/>
<line x1="516.354" y1="0.353553" x2="493.354" y2="23.3536" stroke="#456237" stroke-opacity="0.2"/>
<line x1="539.354" y1="0.353553" x2="516.354" y2="23.3536" stroke="#456237" stroke-opacity="0.2"/>
<line x1="562.354" y1="0.353553" x2="539.354" y2="23.3536" stroke="#456237" stroke-opacity="0.2"/>
<line x1="585.354" y1="0.353553" x2="562.354" y2="23.3536" stroke="#456237" stroke-opacity="0.2"/>
<line x1="608.354" y1="0.353553" x2="585.354" y2="23.3536" stroke="#456237" stroke-opacity="0.2"/>
<line x1="631.354" y1="0.353553" x2="608.354" y2="23.3536" stroke="#456237" stroke-opacity="0.2"/>
<line x1="654.354" y1="0.353553" x2="631.354" y2="23.3536" stroke="#456237" stroke-opacity="0.2"/>
<line x1="677.354" y1="0.353553" x2="654.354" y2="23.3536" stroke="#456237" stroke-opacity="0.2"/>
<line x1="700.354" y1="0.353553" x2="677.354" y2="23.3536" stroke="#456237" stroke-opacity="0.2"/>
<g clip-path="url(#clip1_4_671)">
<rect width="299" height="18" rx="9" fill="#6CA854"/>
<line x1="10.3536" y1="0.353553" x2="0.353554" y2="10.3536" stroke="#456237"/>
<line x1="33.3536" y1="0.353553" x2="10.3536" y2="23.3536" stroke="#456237"/>
<line x1="56.3536" y1="0.353553" x2="33.3536" y2="23.3536" stroke="#456237"/>
<line x1="79.3536" y1="0.353553" x2="56.3536" y2="23.3536" stroke="#456237"/>
<line x1="102.354" y1="0.353553" x2="79.3536" y2="23.3536" stroke="#456237"/>
<line x1="125.354" y1="0.353553" x2="102.354" y2="23.3536" stroke="#456237"/>
<line x1="148.354" y1="0.353553" x2="125.354" y2="23.3536" stroke="#456237"/>
<line x1="171.354" y1="0.353553" x2="148.354" y2="23.3536" stroke="#456237"/>
<line x1="194.354" y1="0.353553" x2="171.354" y2="23.3536" stroke="#456237"/>
<line x1="217.354" y1="0.353553" x2="194.354" y2="23.3536" stroke="#456237"/>
<line x1="240.354" y1="0.353553" x2="217.354" y2="23.3536" stroke="#456237"/>
<line x1="263.354" y1="0.353553" x2="240.354" y2="23.3536" stroke="#456237"/>
<line x1="286.354" y1="0.353553" x2="263.354" y2="23.3536" stroke="#456237"/>
<line x1="309.354" y1="0.353553" x2="286.354" y2="23.3536" stroke="#456237"/>
</g>
</g>
<defs>
<clipPath id="clip0_4_671">
<rect width="697" height="18" rx="9" fill="white"/>
</clipPath>
<clipPath id="clip1_4_671">
<rect width="299" height="18" rx="9" fill="white"/>
</clipPath>
</defs>
</svg>
