<svg width="476" height="13" viewBox="0 0 476 13" fill="none" xmlns="http://www.w3.org/2000/svg">
<g clip-path="url(#clip0_4_1351)">
<rect width="476" height="12.2927" rx="6.14634" fill="#E1E1EA"/>
<line x1="7.07055" y1="0.241451" x2="0.241284" y2="7.07072" stroke="#456237" stroke-opacity="0.2" stroke-width="0.682927"/>
<line x1="22.7781" y1="0.241451" x2="7.07075" y2="15.9488" stroke="#456237" stroke-opacity="0.2" stroke-width="0.682927"/>
<line x1="38.4856" y1="0.241451" x2="22.7783" y2="15.9488" stroke="#456237" stroke-opacity="0.2" stroke-width="0.682927"/>
<line x1="54.1926" y1="0.241451" x2="38.4853" y2="15.9488" stroke="#456237" stroke-opacity="0.2" stroke-width="0.682927"/>
<line x1="69.9001" y1="0.241451" x2="54.1928" y2="15.9488" stroke="#456237" stroke-opacity="0.2" stroke-width="0.682927"/>
<line x1="85.6072" y1="0.241451" x2="69.8999" y2="15.9488" stroke="#456237" stroke-opacity="0.2" stroke-width="0.682927"/>
<line x1="101.315" y1="0.241451" x2="85.6074" y2="15.9488" stroke="#456237" stroke-opacity="0.2" stroke-width="0.682927"/>
<line x1="117.022" y1="0.241451" x2="101.314" y2="15.9488" stroke="#456237" stroke-opacity="0.2" stroke-width="0.682927"/>
<line x1="132.729" y1="0.241451" x2="117.022" y2="15.9488" stroke="#456237" stroke-opacity="0.2" stroke-width="0.682927"/>
<line x1="148.437" y1="0.241451" x2="132.729" y2="15.9488" stroke="#456237" stroke-opacity="0.2" stroke-width="0.682927"/>
<line x1="164.144" y1="0.241451" x2="148.436" y2="15.9488" stroke="#456237" stroke-opacity="0.2" stroke-width="0.682927"/>
<line x1="179.851" y1="0.241451" x2="164.144" y2="15.9488" stroke="#456237" stroke-opacity="0.2" stroke-width="0.682927"/>
<line x1="195.558" y1="0.241451" x2="179.851" y2="15.9488" stroke="#456237" stroke-opacity="0.2" stroke-width="0.682927"/>
<line x1="211.266" y1="0.241451" x2="195.559" y2="15.9488" stroke="#456237" stroke-opacity="0.2" stroke-width="0.682927"/>
<line x1="226.973" y1="0.241451" x2="211.266" y2="15.9488" stroke="#456237" stroke-opacity="0.2" stroke-width="0.682927"/>
<line x1="242.681" y1="0.241451" x2="226.974" y2="15.9488" stroke="#456237" stroke-opacity="0.2" stroke-width="0.682927"/>
<line x1="258.388" y1="0.241451" x2="242.681" y2="15.9488" stroke="#456237" stroke-opacity="0.2" stroke-width="0.682927"/>
<line x1="274.095" y1="0.241451" x2="258.388" y2="15.9488" stroke="#456237" stroke-opacity="0.2" stroke-width="0.682927"/>
<line x1="289.802" y1="0.241451" x2="274.095" y2="15.9488" stroke="#456237" stroke-opacity="0.2" stroke-width="0.682927"/>
<line x1="305.51" y1="0.241451" x2="289.802" y2="15.9488" stroke="#456237" stroke-opacity="0.2" stroke-width="0.682927"/>
<line x1="321.217" y1="0.241451" x2="305.51" y2="15.9488" stroke="#456237" stroke-opacity="0.2" stroke-width="0.682927"/>
<line x1="336.924" y1="0.241451" x2="321.217" y2="15.9488" stroke="#456237" stroke-opacity="0.2" stroke-width="0.682927"/>
<line x1="352.632" y1="0.241451" x2="336.925" y2="15.9488" stroke="#456237" stroke-opacity="0.2" stroke-width="0.682927"/>
<line x1="368.339" y1="0.241451" x2="352.632" y2="15.9488" stroke="#456237" stroke-opacity="0.2" stroke-width="0.682927"/>
<line x1="384.046" y1="0.241451" x2="368.339" y2="15.9488" stroke="#456237" stroke-opacity="0.2" stroke-width="0.682927"/>
<line x1="399.754" y1="0.241451" x2="384.046" y2="15.9488" stroke="#456237" stroke-opacity="0.2" stroke-width="0.682927"/>
<line x1="415.461" y1="0.241451" x2="399.753" y2="15.9488" stroke="#456237" stroke-opacity="0.2" stroke-width="0.682927"/>
<line x1="431.168" y1="0.241451" x2="415.461" y2="15.9488" stroke="#456237" stroke-opacity="0.2" stroke-width="0.682927"/>
<line x1="446.875" y1="0.241451" x2="431.168" y2="15.9488" stroke="#456237" stroke-opacity="0.2" stroke-width="0.682927"/>
<line x1="462.583" y1="0.241451" x2="446.876" y2="15.9488" stroke="#456237" stroke-opacity="0.2" stroke-width="0.682927"/>
<line x1="478.29" y1="0.241451" x2="462.583" y2="15.9488" stroke="#456237" stroke-opacity="0.2" stroke-width="0.682927"/>
<g clip-path="url(#clip1_4_1351)">
<rect width="204.195" height="12.2927" rx="6.14634" fill="#6CA854"/>
<line x1="7.07055" y1="0.241451" x2="0.241284" y2="7.07072" stroke="#456237" stroke-width="0.682927"/>
<line x1="22.7781" y1="0.241451" x2="7.07075" y2="15.9488" stroke="#456237" stroke-width="0.682927"/>
<line x1="38.4856" y1="0.241451" x2="22.7783" y2="15.9488" stroke="#456237" stroke-width="0.682927"/>
<line x1="54.1926" y1="0.241451" x2="38.4853" y2="15.9488" stroke="#456237" stroke-width="0.682927"/>
<line x1="69.9001" y1="0.241451" x2="54.1928" y2="15.9488" stroke="#456237" stroke-width="0.682927"/>
<line x1="85.6072" y1="0.241451" x2="69.8999" y2="15.9488" stroke="#456237" stroke-width="0.682927"/>
<line x1="101.315" y1="0.241451" x2="85.6074" y2="15.9488" stroke="#456237" stroke-width="0.682927"/>
<line x1="117.022" y1="0.241451" x2="101.314" y2="15.9488" stroke="#456237" stroke-width="0.682927"/>
<line x1="132.729" y1="0.241451" x2="117.022" y2="15.9488" stroke="#456237" stroke-width="0.682927"/>
<line x1="148.437" y1="0.241451" x2="132.729" y2="15.9488" stroke="#456237" stroke-width="0.682927"/>
<line x1="164.144" y1="0.241451" x2="148.436" y2="15.9488" stroke="#456237" stroke-width="0.682927"/>
<line x1="179.851" y1="0.241451" x2="164.144" y2="15.9488" stroke="#456237" stroke-width="0.682927"/>
<line x1="195.558" y1="0.241451" x2="179.851" y2="15.9488" stroke="#456237" stroke-width="0.682927"/>
<line x1="211.266" y1="0.241451" x2="195.559" y2="15.9488" stroke="#456237" stroke-width="0.682927"/>
</g>
</g>
<defs>
<clipPath id="clip0_4_1351">
<rect width="476" height="12.2927" rx="6.14634" fill="white"/>
</clipPath>
<clipPath id="clip1_4_1351">
<rect width="204.195" height="12.2927" rx="6.14634" fill="white"/>
</clipPath>
</defs>
</svg>
