<svg width="26" height="26" viewBox="0 0 26 26" fill="none" xmlns="http://www.w3.org/2000/svg">
<rect width="26" height="26" rx="13" fill="#42A94D"/>
<path d="M7.81773 13.3183C7.7226 13.0646 7.43983 12.9361 7.18615 13.0312C6.93247 13.1263 6.80394 13.4091 6.89907 13.6628L7.3584 13.4905L7.81773 13.3183ZM20.1036 1.56789L20.1998 1.08685L19.2377 0.894432L19.1415 1.37547L19.6225 1.47168L20.1036 1.56789ZM15.8219 19.5522L15.364 19.7283L15.8219 19.5522ZM16.0096 19.5362L15.5286 19.44L16.0096 19.5362ZM12.1655 10.506L11.7237 10.2927L12.1655 10.506ZM12.3454 10.5134L11.8876 10.6896L12.3454 10.5134ZM8.74957 17.2003L8.29024 17.3726L8.74957 17.2003ZM8.9298 17.2086L9.37158 17.4218L8.9298 17.2086ZM7.3584 13.4905L6.89907 13.6628L8.29024 17.3726L8.74957 17.2003L9.20891 17.0281L7.81773 13.3183L7.3584 13.4905ZM8.9298 17.2086L9.37158 17.4218L12.6073 10.7193L12.1655 10.506L11.7237 10.2927L8.48802 16.9953L8.9298 17.2086ZM12.3454 10.5134L11.8876 10.6896L15.364 19.7283L15.8219 19.5522L16.2797 19.3761L12.8033 10.3373L12.3454 10.5134ZM16.0096 19.5362L16.4907 19.6324L20.1036 1.56789L19.6225 1.47168L19.1415 1.37547L15.5286 19.44L16.0096 19.5362ZM15.8219 19.5522L15.364 19.7283C15.5757 20.2786 16.3751 20.2106 16.4907 19.6324L16.0096 19.5362L15.5286 19.44C15.6057 19.0545 16.1386 19.0092 16.2797 19.3761L15.8219 19.5522ZM12.1655 10.506L12.6073 10.7193C12.4579 11.0288 12.0109 11.0103 11.8876 10.6896L12.3454 10.5134L12.8033 10.3373C12.6182 9.85616 11.9479 9.82846 11.7237 10.2927L12.1655 10.506ZM8.74957 17.2003L8.29024 17.3726C8.47209 17.8575 9.14641 17.8882 9.37158 17.4218L8.9298 17.2086L8.48802 16.9953C8.63813 16.6843 9.08767 16.7048 9.20891 17.0281L8.74957 17.2003Z" fill="white"/>
</svg>
