<svg width="32" height="32" viewBox="0 0 32 32" fill="none" xmlns="http://www.w3.org/2000/svg">
<g clip-path="url(#clip0_4_221)">
<path d="M0.666748 31.3333H31.3334M6.74808 11.8333L10.5854 7.99459M14.0814 7.32792L17.2521 10.4999M20.0627 10.4813L25.2707 5.59459M6.00008 24.6666L2.00008 25.9999V31.3333H6.00008V24.6666ZM14.0001 16.6666L10.0001 17.9999V31.3333H14.0001V16.6666ZM22.0001 20.6666L18.0001 21.9999V31.3333H22.0001V20.6666ZM30.0001 12.0853L26.0001 13.4186V31.3333H30.0001V12.0853ZM26.6667 1.33325L23.8374 4.15992L26.6667 6.98925L29.4947 4.16259L26.6667 1.33325ZM18.6667 9.08659L15.8387 11.9133L18.6667 14.7439L21.4947 11.9159L18.6667 9.08659ZM12.0001 3.75325L9.17341 6.57992L12.0001 9.41059L14.8281 6.58259L12.0014 3.75459L12.0001 3.75325ZM5.33341 10.4199L2.50675 13.2466L5.33341 16.0773L8.16275 13.2493L5.33341 10.4199Z" stroke="#bd912e" stroke-miterlimit="10" stroke-linecap="round" stroke-linejoin="round"/>
</g>
<defs>
<clipPath id="clip0_4_221">
<rect width="32" height="32" fill="white"/>
</clipPath>
</defs>
</svg>
