<svg width="180" height="62" viewBox="0 0 180 62" fill="none" xmlns="http://www.w3.org/2000/svg">
<path d="M166.946 29.5779C166.456 29.5779 166.275 29.3087 166.402 28.7701L170.882 9.32453C171.009 8.78601 171.318 8.51675 171.807 8.51675H173.158C173.648 8.51675 173.829 8.78601 173.702 9.32453L169.589 27.1692H179.327C179.865 27.1692 180.081 27.3895 179.973 27.8302L179.723 28.917C179.625 29.3576 179.307 29.5779 178.769 29.5779H166.946Z" fill="#575757"/>
<path d="M140.719 29.5779C140.22 29.5779 140.161 29.2548 140.543 28.6086L151.852 9.41266C152.204 8.81538 152.596 8.51675 153.027 8.51675H155.083C155.484 8.51675 155.739 8.81538 155.846 9.41266L159.166 28.6086C159.273 29.2548 159.068 29.5779 158.549 29.5779H157.212C156.693 29.5779 156.395 29.338 156.316 28.8582L155.479 23.9969H146.447L143.583 28.8582C143.299 29.338 142.893 29.5779 142.364 29.5779H140.719ZM147.886 21.5882H155.053L154.025 15.7134C153.898 15.0084 153.795 14.2398 153.717 13.4075C153.639 12.5655 153.599 11.7822 153.599 11.0576H153.541C153.364 11.7528 153.09 12.4627 152.718 13.1872C152.346 13.9118 151.881 14.7538 151.323 15.7134L147.886 21.5882Z" fill="#575757"/>
<path d="M130.851 29.5779C130.361 29.5779 130.18 29.3087 130.307 28.7701L134.787 9.32453C134.914 8.78601 135.223 8.51675 135.712 8.51675H137.064C137.553 8.51675 137.734 8.78601 137.607 9.32453L133.127 28.7701C133 29.3087 132.692 29.5779 132.202 29.5779H130.851Z" fill="#575757"/>
<path d="M105.739 21.0594C105.739 17.1919 106.767 14.0635 108.823 11.6745C110.889 9.27558 113.768 8.07614 117.459 8.07614C119.261 8.07614 120.72 8.38946 121.836 9.01611C122.952 9.64275 123.74 10.475 124.2 11.5129C124.426 12.0318 124.313 12.4235 123.863 12.6879L122.717 13.3635C122.453 13.5201 122.198 13.383 121.953 12.9522C121.66 12.4235 121.126 11.8605 120.352 11.2632C119.579 10.6659 118.531 10.3673 117.209 10.3673C114.762 10.3673 112.74 11.2632 111.144 13.055C109.548 14.8468 108.75 17.6276 108.75 21.3973C108.75 23.1793 109.22 24.6822 110.16 25.9062C111.1 27.1203 112.696 27.7273 114.948 27.7273C116.279 27.7273 117.405 27.3798 118.326 26.6846C119.256 25.9796 119.975 25.2746 120.485 24.5696C120.896 24.0017 121.278 23.8304 121.63 24.0556L122.952 24.9074C123.275 25.1131 123.236 25.5047 122.835 26.0824C122.061 27.2084 121.018 28.1484 119.706 28.9023C118.394 29.6465 116.676 30.0185 114.551 30.0185C111.594 30.0185 109.386 29.1765 107.927 27.4924C106.468 25.7985 105.739 23.6542 105.739 21.0594Z" fill="#575757"/>
<path d="M55.6926 29.5779C55.1933 29.5779 55.1345 29.2548 55.5164 28.6086L66.8254 9.41266C67.1779 8.81538 67.5695 8.51675 68.0003 8.51675H70.0565C70.458 8.51675 70.7125 8.81538 70.8202 9.41266L74.1395 28.6086C74.2472 29.2548 74.0416 29.5779 73.5227 29.5779H72.1861C71.6672 29.5779 71.3686 29.338 71.2902 28.8582L70.4531 23.9969H61.4206L58.5566 28.8582C58.2726 29.338 57.8663 29.5779 57.3376 29.5779H55.6926ZM62.8599 21.5882H70.0271L68.9991 15.7134C68.8718 15.0084 68.769 14.2398 68.6906 13.4075C68.6123 12.5655 68.5731 11.7822 68.5731 11.0576H68.5144C68.3381 11.7528 68.064 12.4627 67.6919 13.1872C67.3198 13.9118 66.8548 14.7538 66.2966 15.7134L62.8599 21.5882Z" fill="#575757"/>
<path d="M32.7403 29.5779C32.2507 29.5779 32.0696 29.3087 32.1968 28.7701L36.6764 9.32453C36.8037 8.78601 37.1121 8.51675 37.6017 8.51675H39.3788C40.074 8.51675 40.5097 8.76153 40.6859 9.2511L46.3845 24.8193H46.4432C46.5314 24.3689 46.6146 23.9773 46.6929 23.6444L49.9828 9.32453C50.1101 8.78601 50.4185 8.51675 50.9081 8.51675H52.2593C52.7489 8.51675 52.93 8.78601 52.8027 9.32453L48.3232 28.7701C48.1959 29.3087 47.8875 29.5779 47.3979 29.5779H46.1936C45.5082 29.5779 45.0773 29.3331 44.9011 28.8436L38.8354 12.3207H38.7766C38.6983 12.7515 38.62 13.1432 38.5416 13.4956L35.0167 28.7701C34.8895 29.3087 34.581 29.5779 34.0915 29.5779H32.7403Z" fill="#575757"/>
<path d="M21.3174 29.5779C20.8279 29.5779 20.6467 29.3087 20.774 28.7701L25.2536 9.32453C25.3808 8.78601 25.6893 8.51675 26.1788 8.51675H27.53C28.0196 8.51675 28.2007 8.78601 28.0735 9.32453L23.5939 28.7701C23.4666 29.3087 23.1582 29.5779 22.6686 29.5779H21.3174Z" fill="#575757"/>
<path d="M0.582818 29.5779C0.0932508 29.5779 -0.0878889 29.3087 0.0393985 28.7701L4.51893 9.32453C4.64622 8.78601 4.95465 8.51675 5.44422 8.51675H17.4141C17.9526 8.51675 18.173 8.73705 18.075 9.17766L17.8254 10.2645C17.7177 10.7051 17.3945 10.9254 16.856 10.9254H6.97166L5.37078 17.8871H13.9921C14.5306 17.8871 14.746 18.1074 14.6383 18.548L14.3886 19.6348C14.2907 20.0754 13.9725 20.2957 13.4339 20.2957H4.81267L2.8593 28.7701C2.73202 29.3087 2.42359 29.5779 1.93402 29.5779H0.582818Z" fill="#575757"/>
<path d="M103.127 52.5876C103.127 48.72 104.155 45.5916 106.212 43.2026C108.277 40.8037 111.156 39.6042 114.847 39.6042C116.649 39.6042 118.108 39.9176 119.224 40.5442C120.34 41.1709 121.129 42.0031 121.589 43.041C121.814 43.5599 121.701 43.9516 121.251 44.216L120.105 44.8916C119.841 45.0482 119.586 44.9111 119.342 44.4803C119.048 43.9516 118.514 43.3886 117.741 42.7913C116.967 42.194 115.92 41.8954 114.598 41.8954C112.15 41.8954 110.128 42.7913 108.532 44.5831C106.936 46.3749 106.138 49.1557 106.138 52.9254C106.138 54.7074 106.608 56.2103 107.548 57.4343C108.488 58.6484 110.084 59.2555 112.336 59.2555C113.668 59.2555 114.794 58.9079 115.714 58.2127C116.644 57.5077 117.364 56.8027 117.873 56.0977C118.284 55.5298 118.666 55.3585 119.019 55.5837L120.34 56.4355C120.664 56.6412 120.624 57.0328 120.223 57.6105C119.449 58.7365 118.407 59.6765 117.095 60.4304C115.783 61.1746 114.064 61.5466 111.939 61.5466C108.982 61.5466 106.775 60.7046 105.316 59.0205C103.857 57.3266 103.127 55.1823 103.127 52.5876Z" fill="#575757"/>
<path d="M91.7482 61.106C91.2587 61.106 91.0775 60.8368 91.2048 60.2982L95.6843 40.8526C95.8116 40.3141 96.1201 40.0448 96.6096 40.0448H97.9608C98.4504 40.0448 98.6315 40.3141 98.5043 40.8526L94.0247 60.2982C93.8974 60.8368 93.589 61.106 93.0994 61.106H91.7482Z" fill="#575757"/>
<path d="M44.9305 60.6595C44.4409 60.6595 44.2598 60.3903 44.3871 59.8517L48.8666 40.4062C48.9939 39.8676 49.3023 39.5984 49.7919 39.5984H51.1431C51.6326 39.5984 51.8138 39.8676 51.6865 40.4062L47.207 59.8517C47.0797 60.3903 46.7712 60.6595 46.2817 60.6595H44.9305Z" fill="#575757"/>
<path d="M24.6367 60.6595C24.1471 60.6595 23.966 60.3903 24.0933 59.8517L28.5728 40.4062C28.7001 39.8676 29.0085 39.5984 29.4981 39.5984H30.8493C31.3389 39.5984 31.52 39.8676 31.3927 40.4062L27.2804 58.2509H37.0178C37.5564 58.2509 37.7718 58.4712 37.6641 58.9118L37.4144 59.9986C37.3165 60.4392 36.9983 60.6595 36.4597 60.6595H24.6367Z" fill="#575757"/>
<path d="M0.538768 52.1411C0.538768 48.2735 1.56686 45.1452 3.62304 42.7561C5.68901 40.3572 8.56766 39.1578 12.259 39.1578C14.0606 39.1578 15.5195 39.4711 16.6357 40.0977C17.7519 40.7244 18.5401 41.5566 19.0003 42.5945C19.2255 43.1135 19.1129 43.5051 18.6625 43.7695L17.5169 44.4451C17.2526 44.6017 16.998 44.4647 16.7532 44.0338C16.4595 43.5051 15.9259 42.9421 15.1523 42.3448C14.3788 41.7476 13.3311 41.4489 12.0093 41.4489C9.56148 41.4489 7.53957 42.3448 5.94359 44.1366C4.3476 45.9285 3.5496 48.7092 3.5496 52.4789C3.5496 54.2609 4.01959 55.7639 4.95956 56.9878C5.89952 58.2019 7.49551 58.809 9.74752 58.809C11.0791 58.809 12.2051 58.4614 13.1255 57.7662C14.0557 57.0612 14.7754 56.3562 15.2845 55.6513C15.6958 55.0834 16.0776 54.912 16.4301 55.1372L17.7519 55.9891C18.0751 56.1947 18.0359 56.5863 17.6344 57.164C16.8609 58.29 15.8181 59.23 14.5061 59.9839C13.1941 60.7281 11.4757 61.1001 9.35097 61.1001C6.39399 61.1001 4.18604 60.2581 2.72713 58.574C1.26822 56.8801 0.538768 54.7358 0.538768 52.1411Z" fill="#575757"/>
<path d="M59.0812 48.6279L62.6067 55.2383C62.8035 55.6073 63.3389 55.5873 63.5077 55.2047L70.1079 40.2442C70.2903 39.8309 70.8834 39.8507 71.0377 40.2752L78.0297 59.503C78.2022 59.9775 78.8888 59.9281 78.9916 59.4337L88.8323 12.1047C88.9324 11.623 89.5942 11.5588 89.7851 12.0122L96.502 27.9647C96.6975 28.4291 97.379 28.3472 97.459 27.8497L101.693 1.50419" stroke="#3FAB4C" stroke-width="3" stroke-linecap="round"/>
</svg>
