<svg width="32" height="32" viewBox="0 0 32 32" fill="none" xmlns="http://www.w3.org/2000/svg">
<g clip-path="url(#clip0_4_224)">
<path fill-rule="evenodd" clip-rule="evenodd" d="M5.09814 4.15854V5.54216H23.9735V4.15854H5.09814ZM5.09814 7.42541V8.69373H23.9735V7.42541H5.09814ZM5.09814 10.5847V11.8376H23.9735V10.5847H5.09814ZM5.09814 13.7286V15.1122H21.0288V13.7286H5.09814ZM5.09814 16.8878V18.2714H15.6778V16.8878H5.09814ZM16.9992 26.9729V28.3488H25.7028V26.9729H16.9992ZM30.132 16.0038L22.6357 23.0603L24.6424 24.8282L32 17.7718L30.132 16.0038ZM21.5672 25.8352L23.0354 25.4509L24.3813 24.9512L23.4351 24.0673L22.5052 23.191L22.0974 24.4439L21.5672 25.8275V25.8352ZM0.807545 0H29.0553V16.6342L27.4565 18.0101V1.38362H1.60693V30.4934H27.4484V22.4223L29.0472 21.0464V32H0V0H0.807545Z" fill="#bd912e"/>
</g>
<defs>
<clipPath id="clip0_4_224">
<rect width="32" height="32" fill="white"/>
</clipPath>
</defs>
</svg>
