<svg width="14" height="22" viewBox="0 0 14 22" fill="none" xmlns="http://www.w3.org/2000/svg">
<g clip-path="url(#clip0_4_156)">
<path d="M3.5 11L6.5 13.5L10.5 8.5M7 18C6.08075 18 5.1705 17.8189 4.32122 17.4672C3.47194 17.1154 2.70026 16.5998 2.05025 15.9497C1.40024 15.2997 0.884626 14.5281 0.532843 13.6788C0.18106 12.8295 0 11.9193 0 11C0 10.0807 0.18106 9.1705 0.532843 8.32122C0.884626 7.47194 1.40024 6.70026 2.05025 6.05025C2.70026 5.40024 3.47194 4.88463 4.32122 4.53284C5.1705 4.18106 6.08075 4 7 4C8.85652 4 10.637 4.7375 11.9497 6.05025C13.2625 7.36301 14 9.14348 14 11C14 12.8565 13.2625 14.637 11.9497 15.9497C10.637 17.2625 8.85652 18 7 18Z" stroke="#bd912e"/>
</g>
<defs>
<clipPath id="clip0_4_156">
<rect width="14" height="22" fill="white"/>
</clipPath>
</defs>
</svg>
